G04*
G04 #@! TF.GenerationSoftware,Altium Limited,Altium Designer,26.10.1 (5)*
G04*
G04 Layer_Color=65535*
G04 Board_Origin=0|0*
%FSLAX44Y44*%
%MOMM*%
G71*
G04*
G04 #@! TF.SameCoordinates,3BB24D30-1B1F-4B90-82A2-4025E6003099*
G04*
G04*
G04 #@! TF.FilePolarity,Positive*
G04*
G01*
G75*
%ADD10C,0.2500*%
%ADD11C,0.2000*%
%ADD12C,0.4000*%
%ADD13C,0.2540*%
D10*
X1212830Y833470D02*
G03*
X1212830Y833470I-1250J0D01*
G01*
X1064240Y900910D02*
G03*
X1064240Y900910I-1250J0D01*
G01*
X972800Y836010D02*
G03*
X972800Y836010I-1250J0D01*
G01*
D11*
X1041130Y828040D02*
G03*
X1041130Y828040I-1000J0D01*
G01*
X1157970Y840740D02*
G03*
X1157970Y840740I-1000J0D01*
G01*
X1198130Y891770D02*
X1225030D01*
X1198130Y837970D02*
Y891770D01*
Y837970D02*
X1225030D01*
Y891770D01*
X1091110Y915270D02*
X1093110D01*
X1091110Y928770D02*
X1093110D01*
X1076240Y833910D02*
Y900910D01*
X1113240Y833910D02*
Y900910D01*
X1076240D02*
X1113240D01*
X1076240Y833910D02*
X1113240D01*
X1044210Y915270D02*
X1046210D01*
X1044210Y928770D02*
X1046210D01*
X1186940Y914500D02*
X1187960D01*
X1186940Y927000D02*
X1187960D01*
X1140730Y928770D02*
X1142730D01*
X1140730Y915270D02*
X1142730D01*
X958100Y894310D02*
X985000D01*
X958100Y840510D02*
Y894310D01*
Y840510D02*
X985000D01*
Y894310D01*
D12*
X1209040Y914400D02*
Y927100D01*
D13*
X1207771Y824228D02*
X1202692D01*
X1205232D01*
Y811532D01*
X1202692Y808992D01*
X1200153D01*
X1197614Y811532D01*
X1223006Y808992D02*
X1212849D01*
X1223006Y819149D01*
Y821688D01*
X1220467Y824228D01*
X1215388D01*
X1212849Y821688D01*
X1016000Y859788D02*
X1013461Y862327D01*
X1008382D01*
X1005843Y859788D01*
Y849632D01*
X1008382Y847093D01*
X1013461D01*
X1016000Y849632D01*
X1021078Y847093D02*
X1026157D01*
X1023618D01*
Y862327D01*
X1021078Y859788D01*
X1087123Y821687D02*
Y808992D01*
X1089662Y806452D01*
X1094741D01*
X1097280Y808992D01*
Y821687D01*
X1102358Y806452D02*
X1107437D01*
X1104898D01*
Y821687D01*
X1102358Y819148D01*
X1131317Y933552D02*
Y946048D01*
X1137565D01*
X1139647Y943965D01*
Y939800D01*
X1137565Y937717D01*
X1131317D01*
X1135482D02*
X1139647Y933552D01*
X1143813Y943965D02*
X1145895Y946048D01*
X1150061D01*
X1152143Y943965D01*
Y941883D01*
X1150061Y939800D01*
X1147978D01*
X1150061D01*
X1152143Y937717D01*
Y935635D01*
X1150061Y933552D01*
X1145895D01*
X1143813Y935635D01*
X1035609Y936072D02*
Y946068D01*
X1040608D01*
X1042274Y944402D01*
Y941070D01*
X1040608Y939404D01*
X1035609D01*
X1038942D02*
X1042274Y936072D01*
X1052271D02*
X1045606D01*
X1052271Y942736D01*
Y944402D01*
X1050604Y946068D01*
X1047272D01*
X1045606Y944402D01*
X1086805Y936072D02*
Y946068D01*
X1091804D01*
X1093470Y944402D01*
Y941070D01*
X1091804Y939404D01*
X1086805D01*
X1090138D02*
X1093470Y936072D01*
X1096802D02*
X1100135D01*
X1098468D01*
Y946068D01*
X1096802Y944402D01*
X968499Y919475D02*
X963420D01*
X965959D01*
Y906779D01*
X963420Y904240D01*
X960881D01*
X958342Y906779D01*
X973577Y904240D02*
X978655D01*
X976116D01*
Y919475D01*
X973577Y916936D01*
X1179119Y944778D02*
Y932282D01*
X1185367D01*
X1187450Y934365D01*
Y942695D01*
X1185367Y944778D01*
X1179119D01*
X1191615Y932282D02*
X1195781D01*
X1193698D01*
Y944778D01*
X1191615Y942695D01*
X1154431Y824228D02*
X1151892Y826768D01*
X1146813D01*
X1144274Y824228D01*
Y814072D01*
X1146813Y811533D01*
X1151892D01*
X1154431Y814072D01*
X1169666Y811533D02*
X1159509D01*
X1169666Y821689D01*
Y824228D01*
X1167127Y826768D01*
X1162048D01*
X1159509Y824228D01*
M02*
