G04*
G04 #@! TF.GenerationSoftware,Altium Limited,Altium Designer,26.10.1 (5)*
G04*
G04 Layer_Color=8388736*
G04 Board_Origin=0|0*
%FSLAX44Y44*%
%MOMM*%
G71*
G04*
G04 #@! TF.SameCoordinates,3BB24D30-1B1F-4B90-82A2-4025E6003099*
G04*
G04*
G04 #@! TF.FilePolarity,Negative*
G04*
G01*
G75*
%ADD14R,1.2000X1.2000*%
%ADD15R,1.2500X1.5500*%
%ADD16R,1.4300X1.9100*%
G04:AMPARAMS|DCode=17|XSize=3.25mm|YSize=2.05mm|CornerRadius=0.0513mm|HoleSize=0mm|Usage=FLASHONLY|Rotation=90.000|XOffset=0mm|YOffset=0mm|HoleType=Round|Shape=RoundedRectangle|*
%AMROUNDEDRECTD17*
21,1,3.2500,1.9475,0,0,90.0*
21,1,3.1475,2.0500,0,0,90.0*
1,1,0.1025,0.9738,1.5738*
1,1,0.1025,0.9738,-1.5738*
1,1,0.1025,-0.9738,-1.5738*
1,1,0.1025,-0.9738,1.5738*
%
%ADD17ROUNDEDRECTD17*%
G04:AMPARAMS|DCode=18|XSize=1mm|YSize=2.05mm|CornerRadius=0.05mm|HoleSize=0mm|Usage=FLASHONLY|Rotation=90.000|XOffset=0mm|YOffset=0mm|HoleType=Round|Shape=RoundedRectangle|*
%AMROUNDEDRECTD18*
21,1,1.0000,1.9500,0,0,90.0*
21,1,0.9000,2.0500,0,0,90.0*
1,1,0.1000,0.9750,0.4500*
1,1,0.1000,0.9750,-0.4500*
1,1,0.1000,-0.9750,-0.4500*
1,1,0.1000,-0.9750,0.4500*
%
%ADD18ROUNDEDRECTD18*%
%ADD19C,1.6000*%
G04:AMPARAMS|DCode=20|XSize=1.6mm|YSize=1.6mm|CornerRadius=0.4mm|HoleSize=0mm|Usage=FLASHONLY|Rotation=90.000|XOffset=0mm|YOffset=0mm|HoleType=Round|Shape=RoundedRectangle|*
%AMROUNDEDRECTD20*
21,1,1.6000,0.8000,0,0,90.0*
21,1,0.8000,1.6000,0,0,90.0*
1,1,0.8000,0.4000,0.4000*
1,1,0.8000,0.4000,-0.4000*
1,1,0.8000,-0.4000,-0.4000*
1,1,0.8000,-0.4000,0.4000*
%
%ADD20ROUNDEDRECTD20*%
%ADD21C,1.2700*%
D14*
X1197950Y920750D02*
D03*
X1176950D02*
D03*
D15*
X1034960Y922020D02*
D03*
X1131480D02*
D03*
X1102360D02*
D03*
X1081860D02*
D03*
X1055460D02*
D03*
X1151980D02*
D03*
D16*
X1156970Y874890D02*
D03*
X1040130Y862190D02*
D03*
X1156970Y857390D02*
D03*
X1040130Y844690D02*
D03*
D17*
X1126490Y867410D02*
D03*
D18*
X1062990D02*
D03*
Y844410D02*
D03*
Y890410D02*
D03*
D19*
X1211580Y877570D02*
D03*
X971550Y880110D02*
D03*
D20*
X1211580Y852170D02*
D03*
X971550Y854710D02*
D03*
D21*
X1182370Y889000D02*
D03*
X1036320Y885190D02*
D03*
M02*
